%TF.GenerationSoftware,KiCad,Pcbnew,10.0.0*%
%TF.CreationDate,2026-08-01T14:03:43+03:00*%
%TF.ProjectId,SAVITAR_V2,53415649-5441-4525-9f56-322e6b696361,rev?*%
%TF.SameCoordinates,Original*%
%TF.FileFunction,Soldermask,Bot*%
%TF.FilePolarity,Negative*%
%FSLAX46Y46*%
G04 Gerber Fmt 4.6, Leading zero omitted, Abs format (unit mm)*
G04 Created by KiCad (PCBNEW 10.0.0) date 2026-08-01 14:03:43*
%MOMM*%
%LPD*%
G01*
G04 APERTURE LIST*
%ADD10C,1.734000*%
%ADD11C,2.000000*%
%ADD12R,2.000000X2.000000*%
%ADD13C,0.900000*%
%ADD14C,0.650000*%
%ADD15O,2.100000X1.000000*%
%ADD16O,1.600000X1.000000*%
G04 APERTURE END LIST*
D10*
%TO.C,UNOT1*%
X-182600000Y-25060000D03*
X-182600000Y-27600000D03*
X-182600000Y-30140000D03*
X-182600000Y-32680000D03*
X-177520000Y-55540000D03*
X-167360000Y-27600000D03*
X-182600000Y-35220000D03*
X-182600000Y-37760000D03*
X-182600000Y-40300000D03*
X-182600000Y-42840000D03*
X-182600000Y-45380000D03*
X-182600000Y-47920000D03*
X-182600000Y-50460000D03*
X-182600000Y-53000000D03*
X-182600000Y-55540000D03*
X-167360000Y-55540000D03*
X-167360000Y-53000000D03*
X-167360000Y-50460000D03*
X-167360000Y-47920000D03*
X-167360000Y-45380000D03*
X-167360000Y-42840000D03*
X-167360000Y-40300000D03*
X-167360000Y-37760000D03*
X-167360000Y-35220000D03*
X-167360000Y-32680000D03*
X-167360000Y-30140000D03*
X-182600000Y-22520000D03*
X-174980000Y-55540000D03*
X-167360000Y-25060000D03*
X-169900000Y-55540000D03*
X-172440000Y-55540000D03*
X-180060000Y-55540000D03*
X-167360000Y-22520000D03*
%TD*%
D11*
%TO.C,TPA1*%
X103520000Y-196245000D03*
%TD*%
D12*
%TO.C,TPA6*%
X107570000Y-204345000D03*
%TD*%
%TO.C,TPB1*%
X111620000Y-200295000D03*
%TD*%
%TO.C,TPB2*%
X111620000Y-204345000D03*
%TD*%
D13*
%TO.C,S1*%
X67970000Y-173645000D03*
X70970000Y-173645000D03*
%TD*%
D11*
%TO.C,TPA3*%
X103520000Y-204345000D03*
%TD*%
D14*
%TO.C,USBC1*%
X165900000Y-183110000D03*
X165900000Y-188890000D03*
D15*
X166430000Y-181680000D03*
D16*
X162250000Y-181680000D03*
D15*
X166430000Y-190320000D03*
D16*
X162250000Y-190320000D03*
%TD*%
D12*
%TO.C,TPA7*%
X111620000Y-196245000D03*
%TD*%
D11*
%TO.C,TPA5*%
X107570000Y-200295000D03*
%TD*%
%TO.C,TPA4*%
X107570000Y-196245000D03*
%TD*%
%TO.C,TPA2*%
X103520000Y-200295000D03*
%TD*%
M02*
