%TF.GenerationSoftware,KiCad,Pcbnew,10.0.0*%
%TF.CreationDate,2026-08-01T14:03:43+03:00*%
%TF.ProjectId,SAVITAR_V2,53415649-5441-4525-9f56-322e6b696361,rev?*%
%TF.SameCoordinates,Original*%
%TF.FileFunction,Paste,Top*%
%TF.FilePolarity,Positive*%
%FSLAX46Y46*%
G04 Gerber Fmt 4.6, Leading zero omitted, Abs format (unit mm)*
G04 Created by KiCad (PCBNEW 10.0.0) date 2026-08-01 14:03:43*
%MOMM*%
%LPD*%
G01*
G04 APERTURE LIST*
G04 Aperture macros list*
%AMRoundRect*
0 Rectangle with rounded corners*
0 $1 Rounding radius*
0 $2 $3 $4 $5 $6 $7 $8 $9 X,Y pos of 4 corners*
0 Add a 4 corners polygon primitive as box body*
4,1,4,$2,$3,$4,$5,$6,$7,$8,$9,$2,$3,0*
0 Add four circle primitives for the rounded corners*
1,1,$1+$1,$2,$3*
1,1,$1+$1,$4,$5*
1,1,$1+$1,$6,$7*
1,1,$1+$1,$8,$9*
0 Add four rect primitives between the rounded corners*
20,1,$1+$1,$2,$3,$4,$5,0*
20,1,$1+$1,$4,$5,$6,$7,0*
20,1,$1+$1,$6,$7,$8,$9,0*
20,1,$1+$1,$8,$9,$2,$3,0*%
G04 Aperture macros list end*
%ADD10RoundRect,0.250000X-1.500000X-0.550000X1.500000X-0.550000X1.500000X0.550000X-1.500000X0.550000X0*%
%ADD11RoundRect,0.135000X-0.135000X-0.185000X0.135000X-0.185000X0.135000X0.185000X-0.135000X0.185000X0*%
%ADD12RoundRect,0.218750X-0.218750X-0.256250X0.218750X-0.256250X0.218750X0.256250X-0.218750X0.256250X0*%
%ADD13RoundRect,0.250000X-0.325000X-0.650000X0.325000X-0.650000X0.325000X0.650000X-0.325000X0.650000X0*%
%ADD14RoundRect,0.150000X-0.587500X-0.150000X0.587500X-0.150000X0.587500X0.150000X-0.587500X0.150000X0*%
%ADD15RoundRect,0.197500X0.632500X-0.197500X0.632500X0.197500X-0.632500X0.197500X-0.632500X-0.197500X0*%
%ADD16RoundRect,0.140000X-0.140000X-0.170000X0.140000X-0.170000X0.140000X0.170000X-0.140000X0.170000X0*%
%ADD17RoundRect,0.243750X-0.243750X-0.456250X0.243750X-0.456250X0.243750X0.456250X-0.243750X0.456250X0*%
%ADD18R,0.800000X0.400000*%
%ADD19R,0.400000X0.800000*%
%ADD20R,1.450000X1.450000*%
%ADD21R,0.700000X0.700000*%
%ADD22RoundRect,0.140000X-0.170000X0.140000X-0.170000X-0.140000X0.170000X-0.140000X0.170000X0.140000X0*%
%ADD23RoundRect,0.250000X-0.262500X-0.450000X0.262500X-0.450000X0.262500X0.450000X-0.262500X0.450000X0*%
%ADD24RoundRect,0.140000X0.170000X-0.140000X0.170000X0.140000X-0.170000X0.140000X-0.170000X-0.140000X0*%
%ADD25RoundRect,0.250000X-0.275000X-0.750000X0.275000X-0.750000X0.275000X0.750000X-0.275000X0.750000X0*%
%ADD26RoundRect,0.150000X-0.512500X-0.150000X0.512500X-0.150000X0.512500X0.150000X-0.512500X0.150000X0*%
%ADD27R,1.528000X0.650000*%
%ADD28R,0.700000X1.500000*%
%ADD29R,1.000000X0.800000*%
%ADD30R,1.400000X0.300000*%
%ADD31RoundRect,0.075000X-0.662500X-0.075000X0.662500X-0.075000X0.662500X0.075000X-0.662500X0.075000X0*%
%ADD32RoundRect,0.075000X-0.075000X-0.662500X0.075000X-0.662500X0.075000X0.662500X-0.075000X0.662500X0*%
%ADD33RoundRect,0.140000X0.140000X0.170000X-0.140000X0.170000X-0.140000X-0.170000X0.140000X-0.170000X0*%
%ADD34RoundRect,0.150000X-0.825000X-0.150000X0.825000X-0.150000X0.825000X0.150000X-0.825000X0.150000X0*%
%ADD35RoundRect,0.150000X-0.575000X0.150000X-0.575000X-0.150000X0.575000X-0.150000X0.575000X0.150000X0*%
%ADD36RoundRect,0.075000X-0.650000X0.075000X-0.650000X-0.075000X0.650000X-0.075000X0.650000X0.075000X0*%
%ADD37RoundRect,0.225000X-0.225000X-0.250000X0.225000X-0.250000X0.225000X0.250000X-0.225000X0.250000X0*%
%ADD38RoundRect,0.250000X-0.250000X-0.475000X0.250000X-0.475000X0.250000X0.475000X-0.250000X0.475000X0*%
%ADD39R,1.200000X0.600000*%
%ADD40R,0.300000X0.800000*%
%ADD41RoundRect,0.250000X-0.375000X-1.075000X0.375000X-1.075000X0.375000X1.075000X-0.375000X1.075000X0*%
%ADD42R,0.800000X1.750000*%
%ADD43R,0.700000X1.750000*%
%ADD44R,1.800000X1.000000*%
%ADD45R,1.450000X0.450000*%
%ADD46RoundRect,0.218750X0.256250X-0.218750X0.256250X0.218750X-0.256250X0.218750X-0.256250X-0.218750X0*%
G04 APERTURE END LIST*
D10*
%TO.C,C47*%
X122500000Y-196100000D03*
X117100000Y-196100000D03*
%TD*%
%TO.C,C48*%
X122500000Y-204250000D03*
X117100000Y-204250000D03*
%TD*%
D11*
%TO.C,R33*%
X119090000Y-61630000D03*
X120110000Y-61630000D03*
%TD*%
D12*
%TO.C,D4*%
X126782500Y-34920000D03*
X128357500Y-34920000D03*
%TD*%
D13*
%TO.C,C9*%
X93700000Y-161320000D03*
X96650000Y-161320000D03*
%TD*%
D11*
%TO.C,R34*%
X123100000Y-51590000D03*
X124120000Y-51590000D03*
%TD*%
D14*
%TO.C,Q1*%
X127042500Y-37490000D03*
X127042500Y-39390000D03*
X128917500Y-38440000D03*
%TD*%
D15*
%TO.C,U15*%
X112710000Y-39135000D03*
X116710000Y-39135000D03*
X116710000Y-37335000D03*
X112710000Y-37335000D03*
%TD*%
D12*
%TO.C,D3*%
X126782500Y-32330000D03*
X128357500Y-32330000D03*
%TD*%
D15*
%TO.C,U18*%
X119920000Y-34310000D03*
X123920000Y-34310000D03*
X123920000Y-32510000D03*
X119920000Y-32510000D03*
%TD*%
D16*
%TO.C,C1*%
X77575000Y-132450000D03*
X78535000Y-132450000D03*
%TD*%
%TO.C,C42*%
X115110000Y-54100000D03*
X116070000Y-54100000D03*
%TD*%
D11*
%TO.C,R6*%
X89575000Y-139980000D03*
X90595000Y-139980000D03*
%TD*%
D17*
%TO.C,C34*%
X58027500Y-188385000D03*
X59902500Y-188385000D03*
%TD*%
D11*
%TO.C,R30*%
X119090000Y-54100000D03*
X120110000Y-54100000D03*
%TD*%
D16*
%TO.C,C3*%
X77575000Y-137470000D03*
X78535000Y-137470000D03*
%TD*%
D11*
%TO.C,R40*%
X127110000Y-54100000D03*
X128130000Y-54100000D03*
%TD*%
D13*
%TO.C,C29*%
X93700000Y-178070000D03*
X96650000Y-178070000D03*
%TD*%
D15*
%TO.C,U20*%
X119920000Y-43960000D03*
X123920000Y-43960000D03*
X123920000Y-42160000D03*
X119920000Y-42160000D03*
%TD*%
D13*
%TO.C,C28*%
X93700000Y-174720000D03*
X96650000Y-174720000D03*
%TD*%
D15*
%TO.C,U14*%
X112710000Y-34310000D03*
X116710000Y-34310000D03*
X116710000Y-32510000D03*
X112710000Y-32510000D03*
%TD*%
D11*
%TO.C,R36*%
X123100000Y-56610000D03*
X124120000Y-56610000D03*
%TD*%
%TO.C,R39*%
X127110000Y-51590000D03*
X128130000Y-51590000D03*
%TD*%
%TO.C,R10*%
X89575000Y-150020000D03*
X90595000Y-150020000D03*
%TD*%
%TO.C,R9*%
X89575000Y-147510000D03*
X90595000Y-147510000D03*
%TD*%
%TO.C,R5*%
X89575000Y-137470000D03*
X90595000Y-137470000D03*
%TD*%
D18*
%TO.C,U4*%
X78300000Y-164845000D03*
X78300000Y-165645000D03*
X78300000Y-166445000D03*
X78300000Y-167245000D03*
X78300000Y-168045000D03*
X78300000Y-168845000D03*
X78300000Y-169645000D03*
X78300000Y-170445000D03*
X78300000Y-171245000D03*
X78300000Y-172045000D03*
X78300000Y-172845000D03*
D19*
X79400000Y-173745000D03*
X80200000Y-173745000D03*
X81000000Y-173745000D03*
X81800000Y-173745000D03*
X82600000Y-173745000D03*
X83400000Y-173745000D03*
X84200000Y-173745000D03*
X85000000Y-173745000D03*
X85800000Y-173745000D03*
X86600000Y-173745000D03*
X87400000Y-173745000D03*
X88200000Y-173745000D03*
X89000000Y-173745000D03*
D18*
X90100000Y-172845000D03*
X90100000Y-172045000D03*
X90100000Y-171245000D03*
X90100000Y-170445000D03*
X90100000Y-169645000D03*
X90100000Y-168845000D03*
X90100000Y-168045000D03*
X90100000Y-167245000D03*
X90100000Y-166445000D03*
X90100000Y-165645000D03*
X90100000Y-164845000D03*
D19*
X89000000Y-163945000D03*
X88200000Y-163945000D03*
X87400000Y-163945000D03*
X86600000Y-163945000D03*
X85800000Y-163945000D03*
X85000000Y-163945000D03*
X84200000Y-163945000D03*
X83400000Y-163945000D03*
X82600000Y-163945000D03*
X81800000Y-163945000D03*
X81000000Y-163945000D03*
X80200000Y-163945000D03*
X79400000Y-163945000D03*
D20*
X84200000Y-168845000D03*
D21*
X90100000Y-163945000D03*
X90100000Y-173745000D03*
X78300000Y-173745000D03*
X78300000Y-163945000D03*
D20*
X82225000Y-168845000D03*
X82225000Y-170820000D03*
X84200000Y-170820000D03*
X86175000Y-170820000D03*
X86175000Y-168845000D03*
X86175000Y-166870000D03*
X84200000Y-166870000D03*
X82225000Y-166870000D03*
%TD*%
D11*
%TO.C,R32*%
X119090000Y-59120000D03*
X120110000Y-59120000D03*
%TD*%
%TO.C,R42*%
X127110000Y-59120000D03*
X128130000Y-59120000D03*
%TD*%
%TO.C,R14*%
X93585000Y-134960000D03*
X94605000Y-134960000D03*
%TD*%
D16*
%TO.C,C2*%
X77575000Y-134960000D03*
X78535000Y-134960000D03*
%TD*%
D22*
%TO.C,C49*%
X198600000Y-184720000D03*
X198600000Y-185680000D03*
%TD*%
D15*
%TO.C,U17*%
X112710000Y-48785000D03*
X116710000Y-48785000D03*
X116710000Y-46985000D03*
X112710000Y-46985000D03*
%TD*%
D11*
%TO.C,R12*%
X89575000Y-155040000D03*
X90595000Y-155040000D03*
%TD*%
%TO.C,R25*%
X97595000Y-137470000D03*
X98615000Y-137470000D03*
%TD*%
%TO.C,R2*%
X85565000Y-155040000D03*
X86585000Y-155040000D03*
%TD*%
D15*
%TO.C,U12*%
X105500000Y-43960000D03*
X109500000Y-43960000D03*
X109500000Y-42160000D03*
X105500000Y-42160000D03*
%TD*%
D23*
%TO.C,SHUNT1*%
X65662500Y-185250000D03*
X67487500Y-185250000D03*
%TD*%
D11*
%TO.C,R31*%
X119090000Y-56610000D03*
X120110000Y-56610000D03*
%TD*%
D24*
%TO.C,C25*%
X213100000Y-182480000D03*
X213100000Y-181520000D03*
%TD*%
D11*
%TO.C,R18*%
X93585000Y-145000000D03*
X94605000Y-145000000D03*
%TD*%
D15*
%TO.C,U19*%
X119920000Y-39135000D03*
X123920000Y-39135000D03*
X123920000Y-37335000D03*
X119920000Y-37335000D03*
%TD*%
%TO.C,U13*%
X105500000Y-48785000D03*
X109500000Y-48785000D03*
X109500000Y-46985000D03*
X105500000Y-46985000D03*
%TD*%
D16*
%TO.C,C44*%
X115110000Y-59120000D03*
X116070000Y-59120000D03*
%TD*%
D25*
%TO.C,SW1*%
X58020000Y-171280000D03*
X62470000Y-171280000D03*
%TD*%
D16*
%TO.C,C16*%
X208020000Y-178400000D03*
X208980000Y-178400000D03*
%TD*%
D11*
%TO.C,R16*%
X93585000Y-139980000D03*
X94605000Y-139980000D03*
%TD*%
D26*
%TO.C,U5*%
X108337500Y-162370000D03*
X108337500Y-163320000D03*
X108337500Y-164270000D03*
X110612500Y-164270000D03*
X110612500Y-162370000D03*
%TD*%
D15*
%TO.C,U7*%
X98290000Y-39135000D03*
X102290000Y-39135000D03*
X102290000Y-37335000D03*
X98290000Y-37335000D03*
%TD*%
D11*
%TO.C,R13*%
X93585000Y-132450000D03*
X94605000Y-132450000D03*
%TD*%
D26*
%TO.C,U1*%
X108337500Y-157745000D03*
X108337500Y-158695000D03*
X108337500Y-159645000D03*
X110612500Y-159645000D03*
X110612500Y-158695000D03*
X110612500Y-157745000D03*
%TD*%
D27*
%TO.C,INAB1*%
X101649000Y-149195000D03*
X101649000Y-150465000D03*
X101649000Y-151735000D03*
X101649000Y-153005000D03*
X107071000Y-153005000D03*
X107071000Y-151735000D03*
X107071000Y-150465000D03*
X107071000Y-149195000D03*
%TD*%
D15*
%TO.C,U11*%
X105500000Y-39135000D03*
X109500000Y-39135000D03*
X109500000Y-37335000D03*
X105500000Y-37335000D03*
%TD*%
D28*
%TO.C,S1*%
X67220000Y-171895000D03*
X70220000Y-171895000D03*
X71720000Y-171895000D03*
D29*
X65820000Y-172545000D03*
X65820000Y-174745000D03*
X73120000Y-172545000D03*
X73120000Y-174745000D03*
%TD*%
D13*
%TO.C,C11*%
X93700000Y-168020000D03*
X96650000Y-168020000D03*
%TD*%
D15*
%TO.C,U9*%
X98290000Y-48785000D03*
X102290000Y-48785000D03*
X102290000Y-46985000D03*
X98290000Y-46985000D03*
%TD*%
D11*
%TO.C,R3*%
X89575000Y-132450000D03*
X90595000Y-132450000D03*
%TD*%
D25*
%TO.C,SW3*%
X58020000Y-180380000D03*
X62470000Y-180380000D03*
%TD*%
D16*
%TO.C,C5*%
X77575000Y-142490000D03*
X78535000Y-142490000D03*
%TD*%
D11*
%TO.C,R22*%
X93585000Y-155040000D03*
X94605000Y-155040000D03*
%TD*%
D13*
%TO.C,C8*%
X93700000Y-157970000D03*
X96650000Y-157970000D03*
%TD*%
D30*
%TO.C,U2*%
X99475000Y-186470000D03*
X99475000Y-186970000D03*
X99475000Y-187470000D03*
X99475000Y-187970000D03*
X99475000Y-188470000D03*
X103875000Y-188470000D03*
X103875000Y-187970000D03*
X103875000Y-187470000D03*
X103875000Y-186970000D03*
X103875000Y-186470000D03*
%TD*%
D16*
%TO.C,C4*%
X77575000Y-139980000D03*
X78535000Y-139980000D03*
%TD*%
D11*
%TO.C,R37*%
X123100000Y-59120000D03*
X124120000Y-59120000D03*
%TD*%
%TO.C,R38*%
X123100000Y-61630000D03*
X124120000Y-61630000D03*
%TD*%
%TO.C,R21*%
X93585000Y-152530000D03*
X94605000Y-152530000D03*
%TD*%
D16*
%TO.C,C17*%
X81585000Y-137470000D03*
X82545000Y-137470000D03*
%TD*%
D31*
%TO.C,U3*%
X200175000Y-181920000D03*
X200175000Y-182420000D03*
X200175000Y-182920000D03*
X200175000Y-183420000D03*
X200175000Y-183920000D03*
X200175000Y-184420000D03*
X200175000Y-184920000D03*
X200175000Y-185420000D03*
X200175000Y-185920000D03*
X200175000Y-186420000D03*
X200175000Y-186920000D03*
X200175000Y-187420000D03*
X200175000Y-187920000D03*
X200175000Y-188420000D03*
X200175000Y-188920000D03*
X200175000Y-189420000D03*
D32*
X202087500Y-191332500D03*
X202587500Y-191332500D03*
X203087500Y-191332500D03*
X203587500Y-191332500D03*
X204087500Y-191332500D03*
X204587500Y-191332500D03*
X205087500Y-191332500D03*
X205587500Y-191332500D03*
X206087500Y-191332500D03*
X206587500Y-191332500D03*
X207087500Y-191332500D03*
X207587500Y-191332500D03*
X208087500Y-191332500D03*
X208587500Y-191332500D03*
X209087500Y-191332500D03*
X209587500Y-191332500D03*
D31*
X211500000Y-189420000D03*
X211500000Y-188920000D03*
X211500000Y-188420000D03*
X211500000Y-187920000D03*
X211500000Y-187420000D03*
X211500000Y-186920000D03*
X211500000Y-186420000D03*
X211500000Y-185920000D03*
X211500000Y-185420000D03*
X211500000Y-184920000D03*
X211500000Y-184420000D03*
X211500000Y-183920000D03*
X211500000Y-183420000D03*
X211500000Y-182920000D03*
X211500000Y-182420000D03*
X211500000Y-181920000D03*
D32*
X209587500Y-180007500D03*
X209087500Y-180007500D03*
X208587500Y-180007500D03*
X208087500Y-180007500D03*
X207587500Y-180007500D03*
X207087500Y-180007500D03*
X206587500Y-180007500D03*
X206087500Y-180007500D03*
X205587500Y-180007500D03*
X205087500Y-180007500D03*
X204587500Y-180007500D03*
X204087500Y-180007500D03*
X203587500Y-180007500D03*
X203087500Y-180007500D03*
X202587500Y-180007500D03*
X202087500Y-180007500D03*
%TD*%
D33*
%TO.C,C23*%
X204780000Y-193000000D03*
X203820000Y-193000000D03*
%TD*%
D11*
%TO.C,R19*%
X93585000Y-147510000D03*
X94605000Y-147510000D03*
%TD*%
D15*
%TO.C,U16*%
X112710000Y-43960000D03*
X116710000Y-43960000D03*
X116710000Y-42160000D03*
X112710000Y-42160000D03*
%TD*%
D16*
%TO.C,C36*%
X85595000Y-139980000D03*
X86555000Y-139980000D03*
%TD*%
D11*
%TO.C,R20*%
X93585000Y-150020000D03*
X94605000Y-150020000D03*
%TD*%
D34*
%TO.C,MUX2*%
X106885000Y-51790000D03*
X106885000Y-53060000D03*
X106885000Y-54330000D03*
X106885000Y-55600000D03*
X106885000Y-56870000D03*
X106885000Y-58140000D03*
X106885000Y-59410000D03*
X106885000Y-60680000D03*
X111835000Y-60680000D03*
X111835000Y-59410000D03*
X111835000Y-58140000D03*
X111835000Y-56870000D03*
X111835000Y-55600000D03*
X111835000Y-54330000D03*
X111835000Y-53060000D03*
X111835000Y-51790000D03*
%TD*%
D35*
%TO.C,USBC1*%
X167345000Y-182750000D03*
X167345000Y-183550000D03*
D36*
X167345000Y-184750000D03*
X167345000Y-185750000D03*
X167345000Y-186250000D03*
X167345000Y-187250000D03*
D35*
X167345000Y-188450000D03*
X167345000Y-189250000D03*
X167345000Y-189250000D03*
X167345000Y-188450000D03*
D36*
X167345000Y-187750000D03*
X167345000Y-186750000D03*
X167345000Y-185250000D03*
X167345000Y-184250000D03*
D35*
X167345000Y-183550000D03*
X167345000Y-182750000D03*
%TD*%
D37*
%TO.C,C33*%
X85300000Y-137470000D03*
X86850000Y-137470000D03*
%TD*%
D11*
%TO.C,R41*%
X127110000Y-56610000D03*
X128130000Y-56610000D03*
%TD*%
D27*
%TO.C,INAA1*%
X101649000Y-142645000D03*
X101649000Y-143915000D03*
X101649000Y-145185000D03*
X101649000Y-146455000D03*
X107071000Y-146455000D03*
X107071000Y-145185000D03*
X107071000Y-143915000D03*
X107071000Y-142645000D03*
%TD*%
D16*
%TO.C,C30*%
X85595000Y-132450000D03*
X86555000Y-132450000D03*
%TD*%
D11*
%TO.C,R28*%
X97595000Y-145000000D03*
X98615000Y-145000000D03*
%TD*%
%TO.C,R11*%
X89575000Y-152530000D03*
X90595000Y-152530000D03*
%TD*%
D13*
%TO.C,C10*%
X93700000Y-164670000D03*
X96650000Y-164670000D03*
%TD*%
D11*
%TO.C,R26*%
X97595000Y-139980000D03*
X98615000Y-139980000D03*
%TD*%
D38*
%TO.C,C35*%
X94225000Y-184770000D03*
X96125000Y-184770000D03*
%TD*%
D39*
%TO.C,IC1*%
X106725000Y-186470000D03*
X106725000Y-187420000D03*
X106725000Y-188370000D03*
X109225000Y-188370000D03*
X109225000Y-187420000D03*
X109225000Y-186470000D03*
%TD*%
D16*
%TO.C,C6*%
X77575000Y-145000000D03*
X78535000Y-145000000D03*
%TD*%
D13*
%TO.C,C21*%
X93700000Y-171370000D03*
X96650000Y-171370000D03*
%TD*%
D11*
%TO.C,R24*%
X97595000Y-134960000D03*
X98615000Y-134960000D03*
%TD*%
%TO.C,R17*%
X93585000Y-142490000D03*
X94605000Y-142490000D03*
%TD*%
D16*
%TO.C,C18*%
X81585000Y-139980000D03*
X82545000Y-139980000D03*
%TD*%
%TO.C,C12*%
X196420000Y-179300000D03*
X197380000Y-179300000D03*
%TD*%
%TO.C,C43*%
X115110000Y-56610000D03*
X116070000Y-56610000D03*
%TD*%
D11*
%TO.C,R29*%
X97595000Y-147510000D03*
X98615000Y-147510000D03*
%TD*%
%TO.C,R1*%
X85565000Y-152530000D03*
X86585000Y-152530000D03*
%TD*%
D16*
%TO.C,C32*%
X85595000Y-134960000D03*
X86555000Y-134960000D03*
%TD*%
D24*
%TO.C,C24*%
X213100000Y-189700000D03*
X213100000Y-188740000D03*
%TD*%
D15*
%TO.C,U10*%
X105500000Y-34310000D03*
X109500000Y-34310000D03*
X109500000Y-32510000D03*
X105500000Y-32510000D03*
%TD*%
D37*
%TO.C,C15*%
X81290000Y-132450000D03*
X82840000Y-132450000D03*
%TD*%
D12*
%TO.C,D2*%
X108157500Y-169430000D03*
X109732500Y-169430000D03*
%TD*%
D15*
%TO.C,U6*%
X98290000Y-34310000D03*
X102290000Y-34310000D03*
X102290000Y-32510000D03*
X98290000Y-32510000D03*
%TD*%
D40*
%TO.C,J2*%
X119885000Y-65185000D03*
X119385000Y-65185000D03*
X118885000Y-65185000D03*
X118385000Y-65185000D03*
X117885000Y-65185000D03*
X117385000Y-65185000D03*
X116885000Y-65185000D03*
X116385000Y-65185000D03*
D19*
X115385000Y-67685000D03*
X120885000Y-67685000D03*
%TD*%
D11*
%TO.C,R27*%
X97595000Y-142490000D03*
X98615000Y-142490000D03*
%TD*%
D12*
%TO.C,D1*%
X108157500Y-166840000D03*
X109732500Y-166840000D03*
%TD*%
D11*
%TO.C,R7*%
X89575000Y-142490000D03*
X90595000Y-142490000D03*
%TD*%
D25*
%TO.C,SW2*%
X58020000Y-175830000D03*
X62470000Y-175830000D03*
%TD*%
D11*
%TO.C,R8*%
X89575000Y-145000000D03*
X90595000Y-145000000D03*
%TD*%
D40*
%TO.C,J1*%
X70070000Y-178995000D03*
X69570000Y-178995000D03*
X69070000Y-178995000D03*
X68570000Y-178995000D03*
X68070000Y-178995000D03*
X67570000Y-178995000D03*
X67070000Y-178995000D03*
X66570000Y-178995000D03*
D19*
X65570000Y-181495000D03*
X71070000Y-181495000D03*
%TD*%
D38*
%TO.C,C20*%
X70655000Y-185100000D03*
X72555000Y-185100000D03*
%TD*%
D33*
%TO.C,C22*%
X207080000Y-178400000D03*
X206120000Y-178400000D03*
%TD*%
D23*
%TO.C,SHUNT2*%
X65662500Y-188560000D03*
X67487500Y-188560000D03*
%TD*%
D16*
%TO.C,C45*%
X115110000Y-61630000D03*
X116070000Y-61630000D03*
%TD*%
%TO.C,C13*%
X196420000Y-184300000D03*
X197380000Y-184300000D03*
%TD*%
D41*
%TO.C,L1*%
X58125000Y-184760000D03*
X60925000Y-184760000D03*
%TD*%
D11*
%TO.C,R4*%
X89575000Y-134960000D03*
X90595000Y-134960000D03*
%TD*%
D34*
%TO.C,MUX1*%
X98435000Y-51790000D03*
X98435000Y-53060000D03*
X98435000Y-54330000D03*
X98435000Y-55600000D03*
X98435000Y-56870000D03*
X98435000Y-58140000D03*
X98435000Y-59410000D03*
X98435000Y-60680000D03*
X103385000Y-60680000D03*
X103385000Y-59410000D03*
X103385000Y-58140000D03*
X103385000Y-56870000D03*
X103385000Y-55600000D03*
X103385000Y-54330000D03*
X103385000Y-53060000D03*
X103385000Y-51790000D03*
%TD*%
D16*
%TO.C,C37*%
X85595000Y-142490000D03*
X86555000Y-142490000D03*
%TD*%
D37*
%TO.C,C39*%
X85300000Y-145000000D03*
X86850000Y-145000000D03*
%TD*%
%TO.C,C14*%
X207725000Y-177100000D03*
X209275000Y-177100000D03*
%TD*%
D42*
%TO.C,DEMUX1*%
X98690000Y-70030000D03*
D43*
X100010000Y-70030000D03*
X101280000Y-70030000D03*
X102550000Y-70030000D03*
X103820000Y-70030000D03*
X105090000Y-70030000D03*
X106360000Y-70030000D03*
D42*
X107680000Y-70030000D03*
X107680000Y-64380000D03*
D43*
X106360000Y-64380000D03*
X105090000Y-64380000D03*
X103820000Y-64380000D03*
X102550000Y-64380000D03*
X101280000Y-64380000D03*
X100010000Y-64380000D03*
D42*
X98690000Y-64380000D03*
%TD*%
D11*
%TO.C,R43*%
X127110000Y-61630000D03*
X128130000Y-61630000D03*
%TD*%
D44*
%TO.C,Y1*%
X196900000Y-183050000D03*
X196900000Y-180550000D03*
%TD*%
D38*
%TO.C,C38*%
X94225000Y-188120000D03*
X96125000Y-188120000D03*
%TD*%
%TO.C,C27*%
X70655000Y-188110000D03*
X72555000Y-188110000D03*
%TD*%
D16*
%TO.C,C40*%
X85595000Y-147510000D03*
X86555000Y-147510000D03*
%TD*%
D45*
%TO.C,DRV2*%
X99500000Y-166220000D03*
X99500000Y-166870000D03*
X99500000Y-167520000D03*
X99500000Y-168170000D03*
X99500000Y-168820000D03*
X99500000Y-169470000D03*
X99500000Y-170120000D03*
X99500000Y-170770000D03*
X99500000Y-171420000D03*
X105400000Y-171420000D03*
X105400000Y-170770000D03*
X105400000Y-170120000D03*
X105400000Y-169470000D03*
X105400000Y-168820000D03*
X105400000Y-168170000D03*
X105400000Y-167520000D03*
X105400000Y-166870000D03*
X105400000Y-166220000D03*
%TD*%
D46*
%TO.C,FB1*%
X197300000Y-187387500D03*
X197300000Y-185812500D03*
%TD*%
D11*
%TO.C,R23*%
X97595000Y-132450000D03*
X98615000Y-132450000D03*
%TD*%
D45*
%TO.C,NMOS1*%
X124185000Y-64460000D03*
X124185000Y-65110000D03*
X124185000Y-65760000D03*
X124185000Y-66410000D03*
X124185000Y-67060000D03*
X124185000Y-67710000D03*
X124185000Y-68360000D03*
X124185000Y-69010000D03*
X124185000Y-69660000D03*
X130085000Y-69660000D03*
X130085000Y-69010000D03*
X130085000Y-68360000D03*
X130085000Y-67710000D03*
X130085000Y-67060000D03*
X130085000Y-66410000D03*
X130085000Y-65760000D03*
X130085000Y-65110000D03*
X130085000Y-64460000D03*
%TD*%
D15*
%TO.C,U21*%
X119920000Y-48785000D03*
X123920000Y-48785000D03*
X123920000Y-46985000D03*
X119920000Y-46985000D03*
%TD*%
D45*
%TO.C,DRV1*%
X99500000Y-157870000D03*
X99500000Y-158520000D03*
X99500000Y-159170000D03*
X99500000Y-159820000D03*
X99500000Y-160470000D03*
X99500000Y-161120000D03*
X99500000Y-161770000D03*
X99500000Y-162420000D03*
X99500000Y-163070000D03*
X105400000Y-163070000D03*
X105400000Y-162420000D03*
X105400000Y-161770000D03*
X105400000Y-161120000D03*
X105400000Y-160470000D03*
X105400000Y-159820000D03*
X105400000Y-159170000D03*
X105400000Y-158520000D03*
X105400000Y-157870000D03*
%TD*%
D16*
%TO.C,C7*%
X77575000Y-147510000D03*
X78535000Y-147510000D03*
%TD*%
D11*
%TO.C,R35*%
X123100000Y-54100000D03*
X124120000Y-54100000D03*
%TD*%
D16*
%TO.C,C41*%
X115110000Y-51590000D03*
X116070000Y-51590000D03*
%TD*%
%TO.C,C19*%
X81585000Y-142490000D03*
X82545000Y-142490000D03*
%TD*%
D13*
%TO.C,C31*%
X93700000Y-181420000D03*
X96650000Y-181420000D03*
%TD*%
D11*
%TO.C,R15*%
X93585000Y-137470000D03*
X94605000Y-137470000D03*
%TD*%
D16*
%TO.C,C46*%
X119120000Y-51590000D03*
X120080000Y-51590000D03*
%TD*%
D15*
%TO.C,U8*%
X98290000Y-43960000D03*
X102290000Y-43960000D03*
X102290000Y-42160000D03*
X98290000Y-42160000D03*
%TD*%
M02*
