%TF.GenerationSoftware,KiCad,Pcbnew,10.0.0*%
%TF.CreationDate,2026-08-01T14:03:43+03:00*%
%TF.ProjectId,SAVITAR_V2,53415649-5441-4525-9f56-322e6b696361,rev?*%
%TF.SameCoordinates,Original*%
%TF.FileFunction,Copper,L3,Inr*%
%TF.FilePolarity,Positive*%
%FSLAX46Y46*%
G04 Gerber Fmt 4.6, Leading zero omitted, Abs format (unit mm)*
G04 Created by KiCad (PCBNEW 10.0.0) date 2026-08-01 14:03:43*
%MOMM*%
%LPD*%
G01*
G04 APERTURE LIST*
%TA.AperFunction,ComponentPad*%
%ADD10C,1.530000*%
%TD*%
%TA.AperFunction,ComponentPad*%
%ADD11C,2.000000*%
%TD*%
%TA.AperFunction,ComponentPad*%
%ADD12R,2.000000X2.000000*%
%TD*%
%TA.AperFunction,ComponentPad*%
%ADD13O,2.100000X1.000000*%
%TD*%
%TA.AperFunction,ComponentPad*%
%ADD14O,1.600000X1.000000*%
%TD*%
G04 APERTURE END LIST*
D10*
%TO.N,/SAMD51 ESP32/TNS_RX1*%
%TO.C,UNOT1*%
X-182600000Y-25060000D03*
%TO.N,/SAMD51 ESP32/TNS_TX1*%
X-182600000Y-27600000D03*
%TO.N,/SAMD51 ESP32/MOT_A.EN{slash}IN1*%
X-182600000Y-30140000D03*
%TO.N,/SAMD51 ESP32/MOT_A.PH{slash}IN2*%
X-182600000Y-32680000D03*
%TO.N,unconnected-(UNOT1-Pad3.3V_1)*%
X-177520000Y-55540000D03*
%TO.N,unconnected-(UNOT1-Pad3.3V_2)*%
X-167360000Y-27600000D03*
%TO.N,/SAMD51 ESP32/MOT_A.~{SLEEP}*%
X-182600000Y-35220000D03*
%TO.N,/SAMD51 ESP32/MOT_A.~{FAULT}*%
X-182600000Y-37760000D03*
%TO.N,/SAMD51 ESP32/MOT_A.PMODE*%
X-182600000Y-40300000D03*
%TO.N,/SAMD51 ESP32/MOT_B.EN{slash}IN1*%
X-182600000Y-42840000D03*
%TO.N,/SAMD51 ESP32/MOT_B.PH{slash}IN2*%
X-182600000Y-45380000D03*
%TO.N,/SAMD51 ESP32/MOT_B.~{SLEEP}*%
X-182600000Y-47920000D03*
%TO.N,/SAMD51 ESP32/MOT_B.~{FAULT}*%
X-182600000Y-50460000D03*
%TO.N,/SAMD51 ESP32/MOT_B.PMODE*%
X-182600000Y-53000000D03*
%TO.N,/SAMD51 ESP32/SEN_EN*%
X-182600000Y-55540000D03*
%TO.N,/SAMD51 ESP32/STATUS_LED*%
X-167360000Y-55540000D03*
%TO.N,/SAMD51 ESP32/BAT_LEVEL*%
X-167360000Y-53000000D03*
%TO.N,/SAMD51 ESP32/MOT_B.C_SENSE*%
X-167360000Y-50460000D03*
%TO.N,/SAMD51 ESP32/MOT_A.C_SENSE*%
X-167360000Y-47920000D03*
%TO.N,/SAMD51 ESP32/SEN_S2*%
X-167360000Y-45380000D03*
%TO.N,/SAMD51 ESP32/SEN_S1*%
X-167360000Y-42840000D03*
%TO.N,/SAMD51 ESP32/SEN_S0*%
X-167360000Y-40300000D03*
%TO.N,/SAMD51 ESP32/SEN_MUX1*%
X-167360000Y-37760000D03*
%TO.N,/SAMD51 ESP32/SEN_MUX2*%
X-167360000Y-35220000D03*
%TO.N,/SAMD51 ESP32/MOT_B.C_STALL*%
X-167360000Y-32680000D03*
%TO.N,/SAMD51 ESP32/MOT_A.C_STALL*%
X-167360000Y-30140000D03*
%TO.N,GND*%
X-182600000Y-22520000D03*
X-174980000Y-55540000D03*
X-167360000Y-25060000D03*
%TO.N,unconnected-(UNOT1-ON{slash}OFF-PadON-OFF)*%
X-169900000Y-55540000D03*
%TO.N,unconnected-(UNOT1-PROGRAM-PadPGM)*%
X-172440000Y-55540000D03*
%TO.N,unconnected-(UNOT1-PadVBAT)*%
X-180060000Y-55540000D03*
%TO.N,+5V*%
X-167360000Y-22520000D03*
%TD*%
D11*
%TO.N,/SAMD51 ESP32/SWCLK*%
%TO.C,TPA1*%
X103520000Y-196245000D03*
%TD*%
D12*
%TO.N,/SAMD51 ESP32/MOT_A1*%
%TO.C,TPA6*%
X107570000Y-204345000D03*
%TD*%
%TO.N,/SAMD51 ESP32/MOT_B1*%
%TO.C,TPB1*%
X111620000Y-200295000D03*
%TD*%
%TO.N,/SAMD51 ESP32/MOT_B2*%
%TO.C,TPB2*%
X111620000Y-204345000D03*
%TD*%
D11*
%TO.N,Net-(U3-~{RESET})*%
%TO.C,TPA3*%
X103520000Y-204345000D03*
%TD*%
D13*
%TO.N,GND*%
%TO.C,USBC1*%
X166430000Y-181680000D03*
D14*
X162250000Y-181680000D03*
D13*
X166430000Y-190320000D03*
D14*
X162250000Y-190320000D03*
%TD*%
D12*
%TO.N,/SAMD51 ESP32/MOT_A2*%
%TO.C,TPA7*%
X111620000Y-196245000D03*
%TD*%
D11*
%TO.N,Net-(U3-VDDANA)*%
%TO.C,TPA5*%
X107570000Y-200295000D03*
%TD*%
%TO.N,GND*%
%TO.C,TPA4*%
X107570000Y-196245000D03*
%TD*%
%TO.N,/SAMD51 ESP32/SWDIO*%
%TO.C,TPA2*%
X103520000Y-200295000D03*
%TD*%
M02*
