%TF.GenerationSoftware,KiCad,Pcbnew,10.0.0*%
%TF.CreationDate,2026-08-01T14:03:43+03:00*%
%TF.ProjectId,SAVITAR_V2,53415649-5441-4525-9f56-322e6b696361,rev?*%
%TF.SameCoordinates,Original*%
%TF.FileFunction,Copper,L4,Bot*%
%TF.FilePolarity,Positive*%
%FSLAX46Y46*%
G04 Gerber Fmt 4.6, Leading zero omitted, Abs format (unit mm)*
G04 Created by KiCad (PCBNEW 10.0.0) date 2026-08-01 14:03:43*
%MOMM*%
%LPD*%
G01*
G04 APERTURE LIST*
%TA.AperFunction,ComponentPad*%
%ADD10C,1.530000*%
%TD*%
%TA.AperFunction,ComponentPad*%
%ADD11C,2.000000*%
%TD*%
%TA.AperFunction,ComponentPad*%
%ADD12R,2.000000X2.000000*%
%TD*%
%TA.AperFunction,ComponentPad*%
%ADD13O,2.100000X1.000000*%
%TD*%
%TA.AperFunction,ComponentPad*%
%ADD14O,1.600000X1.000000*%
%TD*%
G04 APERTURE END LIST*
D10*
%TO.P,UNOT1,0,0_0*%
%TO.N,/SAMD51 ESP32/TNS_RX1*%
X-182600000Y-25060000D03*
%TO.P,UNOT1,1,1_1*%
%TO.N,/SAMD51 ESP32/TNS_TX1*%
X-182600000Y-27600000D03*
%TO.P,UNOT1,2,2_2*%
%TO.N,/SAMD51 ESP32/MOT_A.EN{slash}IN1*%
X-182600000Y-30140000D03*
%TO.P,UNOT1,3,3_3*%
%TO.N,/SAMD51 ESP32/MOT_A.PH{slash}IN2*%
X-182600000Y-32680000D03*
%TO.P,UNOT1,3.3V_1,3.3V_1_3.3V_1*%
%TO.N,unconnected-(UNOT1-Pad3.3V_1)*%
X-177520000Y-55540000D03*
%TO.P,UNOT1,3.3V_2,3.3V_2_3.3V_2*%
%TO.N,unconnected-(UNOT1-Pad3.3V_2)*%
X-167360000Y-27600000D03*
%TO.P,UNOT1,4,4_4*%
%TO.N,/SAMD51 ESP32/MOT_A.~{SLEEP}*%
X-182600000Y-35220000D03*
%TO.P,UNOT1,5,5_5*%
%TO.N,/SAMD51 ESP32/MOT_A.~{FAULT}*%
X-182600000Y-37760000D03*
%TO.P,UNOT1,6,6_6*%
%TO.N,/SAMD51 ESP32/MOT_A.PMODE*%
X-182600000Y-40300000D03*
%TO.P,UNOT1,7,7_7*%
%TO.N,/SAMD51 ESP32/MOT_B.EN{slash}IN1*%
X-182600000Y-42840000D03*
%TO.P,UNOT1,8,8_8*%
%TO.N,/SAMD51 ESP32/MOT_B.PH{slash}IN2*%
X-182600000Y-45380000D03*
%TO.P,UNOT1,9,9_9*%
%TO.N,/SAMD51 ESP32/MOT_B.~{SLEEP}*%
X-182600000Y-47920000D03*
%TO.P,UNOT1,10,10_10*%
%TO.N,/SAMD51 ESP32/MOT_B.~{FAULT}*%
X-182600000Y-50460000D03*
%TO.P,UNOT1,11,11_11*%
%TO.N,/SAMD51 ESP32/MOT_B.PMODE*%
X-182600000Y-53000000D03*
%TO.P,UNOT1,12,12_12*%
%TO.N,/SAMD51 ESP32/SEN_EN*%
X-182600000Y-55540000D03*
%TO.P,UNOT1,13,13_13*%
%TO.N,/SAMD51 ESP32/STATUS_LED*%
X-167360000Y-55540000D03*
%TO.P,UNOT1,14,14_14*%
%TO.N,/SAMD51 ESP32/BAT_LEVEL*%
X-167360000Y-53000000D03*
%TO.P,UNOT1,15,15_15*%
%TO.N,/SAMD51 ESP32/MOT_B.C_SENSE*%
X-167360000Y-50460000D03*
%TO.P,UNOT1,16,16_16*%
%TO.N,/SAMD51 ESP32/MOT_A.C_SENSE*%
X-167360000Y-47920000D03*
%TO.P,UNOT1,17,17_17*%
%TO.N,/SAMD51 ESP32/SEN_S2*%
X-167360000Y-45380000D03*
%TO.P,UNOT1,18,18_18*%
%TO.N,/SAMD51 ESP32/SEN_S1*%
X-167360000Y-42840000D03*
%TO.P,UNOT1,19,19_19*%
%TO.N,/SAMD51 ESP32/SEN_S0*%
X-167360000Y-40300000D03*
%TO.P,UNOT1,20,20_20*%
%TO.N,/SAMD51 ESP32/SEN_MUX1*%
X-167360000Y-37760000D03*
%TO.P,UNOT1,21,21_21*%
%TO.N,/SAMD51 ESP32/SEN_MUX2*%
X-167360000Y-35220000D03*
%TO.P,UNOT1,22,22_22*%
%TO.N,/SAMD51 ESP32/MOT_B.C_STALL*%
X-167360000Y-32680000D03*
%TO.P,UNOT1,23,23_23*%
%TO.N,/SAMD51 ESP32/MOT_A.C_STALL*%
X-167360000Y-30140000D03*
%TO.P,UNOT1,G1,G1_G1*%
%TO.N,GND*%
X-182600000Y-22520000D03*
%TO.P,UNOT1,G2,G2_G2*%
X-174980000Y-55540000D03*
%TO.P,UNOT1,G3,G3_G3*%
X-167360000Y-25060000D03*
%TO.P,UNOT1,ON-OFF,ON/OFF_ON-OFF*%
%TO.N,unconnected-(UNOT1-ON{slash}OFF-PadON-OFF)*%
X-169900000Y-55540000D03*
%TO.P,UNOT1,PGM,PROGRAM_PGM*%
%TO.N,unconnected-(UNOT1-PROGRAM-PadPGM)*%
X-172440000Y-55540000D03*
%TO.P,UNOT1,VBAT,VBAT_VBAT*%
%TO.N,unconnected-(UNOT1-PadVBAT)*%
X-180060000Y-55540000D03*
%TO.P,UNOT1,VIN,VIN_VIN*%
%TO.N,+5V*%
X-167360000Y-22520000D03*
%TD*%
D11*
%TO.P,TPA1,1,1_1*%
%TO.N,/SAMD51 ESP32/SWCLK*%
X103520000Y-196245000D03*
%TD*%
D12*
%TO.P,TPA6,1,1_1*%
%TO.N,/SAMD51 ESP32/MOT_A1*%
X107570000Y-204345000D03*
%TD*%
%TO.P,TPB1,1,1_1*%
%TO.N,/SAMD51 ESP32/MOT_B1*%
X111620000Y-200295000D03*
%TD*%
%TO.P,TPB2,1,1_1*%
%TO.N,/SAMD51 ESP32/MOT_B2*%
X111620000Y-204345000D03*
%TD*%
D11*
%TO.P,TPA3,1,1_1*%
%TO.N,Net-(U3-~{RESET})*%
X103520000Y-204345000D03*
%TD*%
D13*
%TO.P,USBC1,SH,SHIELD_SH*%
%TO.N,GND*%
X166430000Y-181680000D03*
D14*
X162250000Y-181680000D03*
D13*
X166430000Y-190320000D03*
D14*
X162250000Y-190320000D03*
%TD*%
D12*
%TO.P,TPA7,1,1_1*%
%TO.N,/SAMD51 ESP32/MOT_A2*%
X111620000Y-196245000D03*
%TD*%
D11*
%TO.P,TPA5,1,1_1*%
%TO.N,Net-(U3-VDDANA)*%
X107570000Y-200295000D03*
%TD*%
%TO.P,TPA4,1,1_1*%
%TO.N,GND*%
X107570000Y-196245000D03*
%TD*%
%TO.P,TPA2,1,1_1*%
%TO.N,/SAMD51 ESP32/SWDIO*%
X103520000Y-200295000D03*
%TD*%
M02*
