M48
; DRILL file KiCad 10.0.0 date 2026-08-01T14:03:43
; FORMAT={-:-/ absolute / inch / decimal}
; #@! TF.CreationDate,2026-08-01T14:03:43+03:00
; #@! TF.GenerationSoftware,Kicad,Pcbnew,10.0.0
; #@! TF.FileFunction,Plated,1,4,PTH
FMAT,2
INCH
; #@! TA.AperFunction,Plated,PTH,ComponentDrill
T1C0.0236
; #@! TA.AperFunction,Plated,PTH,ComponentDrill
T2C0.0394
; #@! TA.AperFunction,Plated,PTH,ComponentDrill
T3C0.0402
%
G90
G05
T2
X4.0756Y-7.7262
X4.0756Y-7.8856
X4.0756Y-8.0451
X4.235Y-7.7262
X4.235Y-7.8856
X4.235Y-8.0451
X4.3945Y-7.7262
X4.3945Y-7.8856
X4.3945Y-8.0451
T3
X-7.189Y-0.8866
X-7.189Y-0.9866
X-7.189Y-1.0866
X-7.189Y-1.1866
X-7.189Y-1.2866
X-7.189Y-1.3866
X-7.189Y-1.4866
X-7.189Y-1.5866
X-7.189Y-1.6866
X-7.189Y-1.7866
X-7.189Y-1.8866
X-7.189Y-1.9866
X-7.189Y-2.0866
X-7.189Y-2.1866
X-7.089Y-2.1866
X-6.989Y-2.1866
X-6.889Y-2.1866
X-6.789Y-2.1866
X-6.689Y-2.1866
X-6.589Y-0.8866
X-6.589Y-0.9866
X-6.589Y-1.0866
X-6.589Y-1.1866
X-6.589Y-1.2866
X-6.589Y-1.3866
X-6.589Y-1.4866
X-6.589Y-1.5866
X-6.589Y-1.6866
X-6.589Y-1.7866
X-6.589Y-1.8866
X-6.589Y-1.9866
X-6.589Y-2.0866
X-6.589Y-2.1866
T1
G00X6.3996Y-7.1528
M15
G01X6.376Y-7.1528
M16
G05
G00X6.3996Y-7.4929
M15
G01X6.376Y-7.4929
M16
G05
G00X6.574Y-7.1528
M15
G01X6.5307Y-7.1528
M16
G05
G00X6.574Y-7.4929
M15
G01X6.5307Y-7.4929
M16
G05
M30
